<svg version="1.2" xmlns="http://www.w3.org/2000/svg" viewBox="0 0 139 128" width="139" height="128"><style>.a{fill:#fc0000}.b{fill:#fff}.c{fill:#be251e}</style><g style="opacity:.9"><path class="a" d="m106.9 101.3c-20.8 20.8-54.3 20.8-75.1 0-20.7-20.8-20.7-54.3 0-75.1 20.8-20.7 54.3-20.7 75.1 0 20.7 20.8 20.7 54.3 0 75.1z"/><path fill-rule="evenodd" d="m123.4 63.8c0 29.8-24.2 54-54 54-29.9 0-54.1-24.2-54.1-54 0-29.9 24.2-54.1 54.1-54.1 29.8 0 54 24.2 54 54.1zm-106.1 0c0 28.7 23.3 52 52.1 52 28.7 0 52-23.3 52-52 0-28.8-23.3-52.1-52-52.1-28.8 0-52.1 23.3-52.1 52.1z"/><path fill-rule="evenodd" class="b" d="m38.1 27.7h0.1q0.2 0 0.4 0 0.3 0 0.5 0.1h0.1q0.2 0 0.5 0.1 0.2 0.1 0.5 0.1 0.1 0.1 0.2 0.1 0.1 0 0.2 0 0.3 0.1 0.5 0.2h0.1q0.2 0.1 0.4 0.2 0.3 0.1 0.6 0.2 0.2 0.1 0.4 0.2 0.3 0.2 0.6 0.3 0 0.1 0.1 0.1 0.1 0.1 0.2 0.1 0.3 0.2 0.6 0.4 0.1 0 0.1 0.1h0.1 0.1l0.3 0.2 0.5 0.4q0.7 0.5 1.4 1 1 0.8 1.8 1.5c0.8 0.6 1.5 1.2 2.2 1.8q0.1 0 0.2 0 0 0 0 0 0.1 0 0.1 0 0 0 0.1 0c3.4-2 7.2-3.3 11.3-3.9q1.2-0.2 2.4-0.3 0.6-0.1 1.3-0.2h0.1 3.7 0.1c4.2 0.2 7.8 0.9 11 2.3 1.8 0.7 3.5 1.7 5.2 2.6q0.7 0.3 1.4 0.7l0.1 0.1q0.1 0 0.1 0l0.2 0.1h0.1v0.1h0.1l0.1-0.1q0.1-0.1 0.1-0.1l0.1-0.1c2.5-2.8 5.3-5.7 9.2-7.3q1-0.4 1.9-0.6 0.6-0.1 1.2-0.2 0 0 0.1 0h0.1q0.5-0.1 1.1-0.1h0.3q0.1 0 0.2 0c0.1 0 0.2 0 0.2 0h0.1q0.1 0 0.2 0h0.1l0.4 0.1q0.1 0 0.2 0h0.1 0.1q0.2 0.1 0.4 0.1l0.1 0.1q0.1 0 0.3 0 0.4 0.1 0.7 0.3 1.4 0.5 2.3 1.3c1.6 1.4 2.4 3.4 2.5 6.3 0.2 3.7-0.6 7.2-1.4 10.4-1.4 4.9-2.9 9.8-4.5 14.4-0.3 1-0.2 2-0.1 3.1q0 0.4 0 0.8 0.1 1.1 0.2 2.2c0.3 2.3 0.5 4.6 0.1 7-0.3 1.5-0.2 3.2 0.3 5.4 0.1 0.6 0.2 1.2 0.3 1.7q0 0.1 0 0.3v0.1c0.1 0.4 0.1 0.8 0.1 1.3v0.5q0.1 0.5 0 1.1 0 0.2 0 0.3 0 0.2 0 0.3 0 0.5-0.1 1v0.1q0 0 0 0.1 0 0.1 0 0.2 0 0 0 0.1-0.1 0.1-0.1 0.2 0 0.4-0.1 0.9-0.1 0.4-0.2 0.7-0.1 0.4-0.2 0.8-0.1 0.3-0.1 0.5l-0.1 0.3q-0.1 0.4-0.3 0.8-0.1 0.4-0.3 0.7v0.1 0.1q-0.1 0.1-0.1 0.3c-0.1 0.4-0.7 2-2.5 4.3v0.1q-0.3 0.4-0.7 0.8-0.1 0.2-0.3 0.4-0.1 0.1-0.2 0.3-0.2 0.1-0.3 0.3l-0.3 0.3c-0.5 0.5-1 1.1-1.6 1.6q-1.1 0.8-2.2 1.7l-0.3 0.2h-0.1c-0.9 0.6-3.9 2.4-9 4.2-3.8 1.3-7.9 2.2-12.1 2.8q-0.6 0.1-1.1 0.1c-0.2 0.1-0.4 0.1-0.6 0.1-0.4 0.1-0.6 0.2-0.8 0.2q-0.1 0-0.1 0-0.1 0-0.2 0-2.1 0.2-4.4 0.2-0.8 0-1.7 0-2.1-0.1-4.2-0.4c-3.3-0.4-6.7-1.2-10.1-2.2q-0.2-0.1-0.4-0.1l-0.2-0.1-0.2-0.1q-0.2 0-0.4-0.1-0.5-0.2-1-0.3-0.2-0.1-0.4-0.1v-0.1c-0.7-0.2-0.9-0.3-1-0.4-2.6-1-4.9-2.4-7-4-2.3-1.9-4.2-4-5.8-6.5q-0.7-1.2-1.4-2.6c-3.7-6.7-1.7-13.5-1.4-14.4q0.1-0.5 0.2-1 0.2-0.5 0.3-1 0.1-0.1 0.1-0.2 0.1-0.4 0.1-0.7c0-0.5-0.1-1.1-0.1-1.6q0-0.5-0.1-0.9 0-1.9 0-3.8 0-0.5 0-1 0-1.4 0.2-2.7 0.2-1.9 0.8-3.7 0.1-0.2 0.1-0.4c0.1-0.4 0.1-0.7-0.1-1.3q-0.1-0.3-0.2-0.7l-0.1-0.3v-0.1q-0.1-0.5-0.3-1.1c-0.8-4.3-1.8-8.8-3-13.7-0.5-2-0.7-4.1-0.7-6.5q0-0.6 0-1.2c0.2-5 3.1-8 8.1-8.4q0.2 0 0.5 0h0.2q0.2 0 0.5 0zm-0.7 1q-0.2 0-0.5 0c-4.5 0.3-7 3-7.1 7.4q0 0.6 0 1.2c0 2.1 0.2 4.2 0.7 6.3q1.6 6.8 3 13.7 0.1 0.6 0.3 1.1 0.2 0.5 0.3 1.1c0.1 0.5 0.2 1.1 0.1 1.7q0 0.2-0.1 0.5-0.6 1.7-0.8 3.5-0.2 1.3-0.2 2.6 0 0.5 0 1 0 1.9 0 3.8c0.1 0.8 0.2 1.7 0.2 2.5q0 0.5-0.1 0.9-0.1 0.2-0.1 0.3-0.2 0.5-0.3 1-0.1 0.5-0.3 1 0 0 0 0c-0.1 0.5-2.3 7.1 1.4 13.6q0 0.1 0 0.1 0.7 1.3 1.4 2.5c1.4 2.3 3.3 4.4 5.6 6.2 2.1 1.7 4.4 3 6.8 3.9v0.1q0.1 0 0.9 0.3 0.2 0.1 0.4 0.1 0.4 0.2 0.9 0.4 0.3 0.1 0.7 0.2 0.2 0.1 0.5 0.1c2.4 0.8 5.9 1.7 9.9 2.2q2 0.3 4.1 0.4 0.9 0 1.8 0 2.1 0 4.2-0.2 0.2 0 0.4 0c0.2-0.1 1.1-0.2 1.3-0.3q0.6 0 1-0.1c4.8-0.6 8.8-1.7 12-2.8 5.7-1.9 8.7-4 9-4.2q0 0 0 0 1.2-0.8 2.3-1.7c0.5-0.5 1-1 1.5-1.5q0.1-0.2 0.3-0.3 0.3-0.3 0.5-0.6 0.1-0.1 0.2-0.2v-0.1q0.4-0.4 0.7-0.8 0-0.1 0.1-0.1c1.9-2.6 2.2-4.1 2.2-4.1q0.1-0.1 0.1-0.2 0.1-0.1 0.1-0.2 0.2-0.4 0.3-0.7 0.1-0.4 0.3-0.8 0.1-0.4 0.2-0.7 0.1-0.4 0.2-0.8 0-0.4 0.1-0.7 0.1-0.4 0.2-0.9 0-0.1 0-0.3 0-0.2 0.1-0.3 0-0.5 0-1 0-0.3 0.1-0.6 0-0.5 0-1v-0.5q-0.1-0.6-0.2-1.2 0-0.2 0-0.4-0.1-0.8-0.3-1.6c-0.4-1.9-0.7-3.9-0.3-5.8 0.6-3 0-6-0.3-9-0.1-1.5-0.3-2.8 0.2-4.3 1.6-4.7 3.1-9.5 4.4-14.3 0.9-3.3 1.6-6.6 1.5-10-0.1-2.3-0.7-4.3-2.3-5.7q-0.7-0.7-1.9-1.1-0.4-0.1-0.7-0.2-0.1-0.1-0.2-0.1-0.3-0.1-0.5-0.1-0.1 0-0.3 0-0.2-0.1-0.4-0.1-0.2 0-0.3 0-0.2 0-0.4 0h-0.2q-0.6 0-1.1 0-0.1 0-0.1 0.1-0.6 0-1.1 0.2-0.9 0.2-1.8 0.5c-3.6 1.5-6.3 4.2-8.8 7l-0.1 0.1q-0.1 0.1-0.2 0.2-0.1 0.1-0.1 0.1-0.1 0.1-0.2 0.1-0.1 0.1-0.1 0.1-0.1 0-0.2 0 0 0.1-0.1 0.1 0 0-0.1 0-0.1 0-0.1 0-0.1 0-0.1-0.1-0.1 0-0.2 0 0 0-0.1 0-0.1-0.1-0.1-0.1-0.1 0-0.2 0v-0.1q-0.1 0-0.2-0.1c-2.2-1.1-4.3-2.4-6.6-3.3-3.4-1.4-7-2-10.7-2.2q-1.8 0-3.7 0c-1.2 0.2-2.4 0.3-3.7 0.5-3.9 0.6-7.6 1.8-11 3.8q-0.1 0.1-0.3 0.1 0 0-0.1 0 0 0-0.1 0 0 0-0.1 0-0.1 0-0.2 0-0.1 0-0.2 0-0.2-0.1-0.3-0.2c-1.4-1-2.7-2.2-4.1-3.3q-0.7-0.5-1.4-1-0.4-0.3-0.8-0.5-0.1-0.1-0.2-0.2-0.3-0.2-0.6-0.3-0.2-0.1-0.3-0.2-0.3-0.1-0.6-0.3-0.1-0.1-0.3-0.1-0.3-0.2-0.5-0.3-0.2 0-0.4-0.1-0.3-0.1-0.5-0.2-0.2 0-0.4-0.1-0.3-0.1-0.6-0.1-0.2-0.1-0.4-0.1-0.2-0.1-0.5-0.1-0.2 0-0.5 0-0.2 0-0.4 0z"/><path class="a" d="m49.8 106q-0.5-0.2-1-0.4l0.3-0.9q0.4 0.1 1 0.3z"/><path fill-rule="evenodd" class="b" d="m50.3 104.5l-0.7 1.9q-0.6-0.2-1-0.3l0.7-1.9q0.4 0.1 1 0.3zm-0.4 1q-0.5-0.2-0.9-0.3 0.4 0.1 0.9 0.3z"/><path class="c" d="m67.9 93.6c-1 0-3.3 1.8-3.3 2.6 0 1.3 1.7 2.6 3.5 2.6 2 0 3-0.9 3-2.4 0-1-2-2.8-3.2-2.8z"/><path  d="m98.9 97.3q0.2-0.3 0.5-0.6 0.1-0.1 0.2-0.3-0.3 0.5-0.7 0.9z"/><path  d="m49 105.1q0.4 0.2 0.9 0.4-0.5-0.2-0.9-0.4z"/><path fill-rule="evenodd" d="m103.4 60.5c-0.5 1.4-0.3 2.8-0.2 4.2 0.3 3 0.9 6 0.3 9-0.4 1.9-0.1 3.9 0.3 5.8q0.2 0.8 0.3 1.6 0 0.2 0 0.4 0.1 0.6 0.2 1.2v0.5q0 0.5 0 1-0.1 0.3-0.1 0.6 0 0.5 0 1-0.1 0.1-0.1 0.3 0 0.2 0 0.3-0.1 0.5-0.2 0.9-0.1 0.3-0.1 0.7-0.1 0.4-0.2 0.8-0.1 0.3-0.3 0.7-0.1 0.4-0.2 0.8-0.1 0.3-0.3 0.7 0 0.1-0.1 0.2 0 0.1-0.1 0.2c0 0-0.3 1.5-2.2 4.1q-0.1 0-0.1 0.1-0.3 0.4-0.7 0.8-0.3 0.5-0.8 0.9-0.1 0.1-0.2 0.3c-0.5 0.5-1 1-1.5 1.5q-1.1 0.9-2.3 1.7 0 0 0 0c-0.3 0.2-3.3 2.3-9 4.2-3.2 1.1-7.2 2.2-12 2.8q-0.4 0.1-1 0.1c-0.2 0.1-1.1 0.2-1.3 0.3q-0.2 0-0.4 0c-2 0.2-4 0.3-6 0.2q-2.1-0.1-4.1-0.4c-4-0.5-7.5-1.4-9.9-2.2q-0.3 0-0.6-0.1-0.3-0.1-0.6-0.2-0.5-0.2-0.9-0.4-0.2 0-0.4-0.1-0.8-0.3-0.9-0.3v-0.1c-2.4-0.9-4.7-2.2-6.8-3.9-2.3-1.8-4.2-3.9-5.6-6.2q-0.7-1.2-1.4-2.5 0 0 0-0.1c-3.7-6.5-1.5-13.1-1.4-13.6q0 0 0 0 0.2-0.5 0.3-1 0.1-0.5 0.3-1 0-0.1 0.1-0.3 0.1-0.4 0.1-0.9c0-0.8-0.1-1.7-0.2-2.5q0-1.9 0-3.8 0-0.5 0-1 0-1.3 0.2-2.6 0.2-1.8 0.8-3.5 0.1-0.3 0.1-0.5c0.1-0.6 0-1.2-0.1-1.7q-0.1-0.6-0.3-1.1-0.2-0.5-0.3-1.1-1.4-6.9-3-13.7c-0.5-2.1-0.7-4.2-0.7-6.3q0-0.6 0-1.2c0.1-4.4 2.6-7.1 7.1-7.4q0.3 0 0.5 0h0.2q0.2 0 0.4 0 0.3 0 0.5 0 0.3 0 0.5 0.1 0.2 0 0.4 0.1 0.3 0 0.6 0.1 0.2 0.1 0.4 0.1 0.2 0.1 0.5 0.2 0.2 0.1 0.4 0.1 0.2 0.1 0.5 0.3 0.2 0 0.3 0.1 0.3 0.2 0.6 0.3 0.1 0.1 0.3 0.2 0.3 0.1 0.6 0.3 0.1 0.1 0.2 0.2 0.4 0.2 0.8 0.5 0.7 0.5 1.4 1c1.4 1.1 2.7 2.3 4.1 3.3q0.1 0.1 0.3 0.2 0.1 0 0.2 0 0.1 0 0.2 0 0.1 0 0.1 0 0.1 0 0.1 0 0.1 0 0.1 0 0.2 0 0.3-0.1c3.4-2 7.1-3.2 11-3.8 1.2-0.2 2.5-0.3 3.7-0.5q1.9 0 3.7 0c3.7 0.2 7.3 0.8 10.7 2.2 2.3 0.9 4.4 2.2 6.6 3.3q0.1 0.1 0.2 0.1v0.1q0.1 0 0.2 0 0 0 0.1 0.1 0.1 0 0.1 0 0.1 0 0.2 0 0 0 0.1 0.1 0 0 0.1 0 0.1 0 0.1-0.1 0.1 0.1 0.1 0 0.1 0 0.2 0 0 0 0.1-0.1 0.1 0 0.2-0.1 0 0 0.1-0.1 0.1-0.1 0.2-0.2v-0.1c2.6-2.8 5.3-5.5 8.9-7q0.9-0.3 1.8-0.5 0.5-0.2 1.1-0.2 0-0.1 0.1-0.1 0.5 0 1.1 0h0.2q0.2 0 0.4 0 0.1 0 0.3 0 0.2 0 0.4 0.1 0.2 0 0.3 0 0.2 0 0.5 0.1 0.1 0 0.2 0.1 0.3 0.1 0.7 0.2 1.2 0.4 1.9 1.1c1.6 1.4 2.2 3.4 2.3 5.7 0.1 3.4-0.6 6.7-1.5 10-1.3 4.8-2.8 9.6-4.4 14.4zm-67-8.5c0.1 0.4 0.5 0.7 0.7 1 0.2-0.4 0.5-0.6 0.6-1 0.1-0.3 0.1-0.7 0.1-1q-0.4-2.1-0.9-4.1c-0.3-1.4-0.6-2.8-0.9-4.2-0.1-1 0.3-1.5 1.4-1.5 1.1-0.1 1.7 0.3 2.1 1.3 0.2 0.7 0.5 1.4 0.7 2.1q0 0.1 0 0.2c0.2 0.6 0.4 0.5 0.9-0.1 1.7-2 3.5-3.9 5.8-5.5 0.6-0.4 0.5-0.9 0.1-1.3-0.5-0.6-1.2-1-1.8-1.6-1.8-1.5-3.8-3-6.2-3.6q-0.5-0.1-0.9-0.2c-1.7-0.2-2.8 0.2-3.6 1.6q0 0-0.1 0.2c-0.2 0.6-0.8 2.7-0.1 7.7q0.1 0.3 0.1 0.5 0.1 0.8 0.3 1.5 0.8 4 1.7 8zm63.2 29.9q-0.6-2-1.1-4.1c-0.1-0.6 0-1.2 0-1.9 0.1-1.3 0.4-2.6 0.3-3.9-0.1-2.2-0.4-4.4-0.6-6.6-0.3-3-1.6-5.8-3.1-8.4q-0.2-0.3-0.5-0.7c-1.5-2.4-3.6-4.3-5.7-6.2-1-0.8-2.2-1.5-3.6-1.2-0.9 0.2-1.9 0.6-2.7 1.1-3.7 2.2-6.1 5.4-7.8 9.2-0.5 1-0.6 2.2-0.9 3.3-0.3 1-0.8 2.1-1.9 2.2-1.9 0.2-3.8 0-5.7 0.2-1.5 0.1-2-0.9-2.6-1.8-0.3-0.4-0.3-1-0.6-1.4-1.2-2.6-2.4-5.3-3.8-7.8-0.6-1.1-1.7-2.1-2.7-2.8-0.9-0.8-2.1-1.4-3.2-1.7-1.3-0.4-2.6-1.2-3.9-0.3-2.8 2-5.2 4.3-7.1 7.1q-0.3 0.4-0.6 0.8c-2.2 3.3-3.4 7.1-3.9 11-0.4 2.5 0.1 5.2 0.2 7.8 0 0.5 0 1.1-0.2 1.5-2 3-1.9 6.3-1.4 9.4 0.8 5.1 3.7 8.9 8 11.8q3.9 2.6 8.1 4.2c4.7 1.8 9.6 2.8 14.8 3 3.3-0.4 6.6-0.7 9.9-1.4 2.5-0.4 5-1.2 7.4-2.2q1.2-0.5 2.5-1.2c2.4-1.3 4.8-2.7 6.8-4.5 2.5-2.1 4.4-4.9 5.1-8.2 0.5-2.1 1.2-4.1 0.5-6.3zm5.3-42.3c0.3-2 0.3-3.9-0.1-4.9q0-0.1 0-0.2-0.1-0.1-0.2-0.2 0-0.1 0-0.1c-0.9-1.6-2.6-2-4.1-1.4q-0.8 0.3-1.5 0.7c-3 1.5-5.5 3.7-7.8 6.2-0.4 0.4-0.3 0.5 0.1 0.9 1.8 1.8 3.6 3.7 5.3 5.6q0.1 0.1 0.1 0.1c0.5 0.6 0.9 0.7 1.2 0 0.1-0.4 0.2-0.8 0.3-1.2 0.4-0.9 0.7-2 1.4-2.6 0.5-0.5 1.4-1.3 2.4-0.5 0.5 0.5 0.3 1.4 0.3 1.5 0.1 0.4-0.1 0.8-0.2 1.2-0.6 2.8-1.5 5.5-2 8.4-0.2 0.7 0.5 1.6 0.7 2.4 0.2-0.1 0.4-0.2 0.5-0.4 0.5-1.9 1.1-3.9 1.6-5.8 0 0 1.5-5.3 2-9.7z"/><path fill-rule="evenodd" class="b" d="m99.1 88.3c-0.7 3.2-2.6 6-5.1 8.1-2 1.8-4.4 3.2-6.8 4.5q-1.3 0.7-2.5 1.2c-2.4 1-4.9 1.7-7.4 2.2-3.3 0.7-6.6 1-9.9 1.4-5.2-0.2-10.1-1.2-14.8-3q-4.2-1.6-8.1-4.2c-4.3-2.9-7.2-6.7-8-11.8-0.5-3.1-0.6-6.4 1.4-9.4 0.2-0.4 0.2-1 0.2-1.5-0.1-2.6-0.6-5.3-0.2-7.8 0.5-3.9 1.7-7.7 3.9-11q0.3-0.4 0.6-0.8c1.9-2.8 4.3-5.1 7.1-7.1 1.3-0.9 2.6-0.1 3.9 0.3 1.1 0.4 2.3 0.9 3.2 1.6 1 0.8 2.1 1.8 2.7 2.9 1.4 2.5 2.6 5.2 3.8 7.8 0.2 0.4 0.3 1 0.6 1.4 0.6 0.9 1.1 1.9 2.6 1.7 1.9-0.1 3.8 0.1 5.7-0.1 1.1-0.1 1.6-1.2 1.8-2.2 0.4-1.1 0.5-2.3 1-3.3 1.7-3.8 4.1-7 7.8-9.2 0.8-0.5 1.8-0.9 2.7-1.1 1.4-0.3 2.6 0.4 3.6 1.2 2.1 1.8 4.2 3.8 5.7 6.2q0.3 0.4 0.5 0.7c1.5 2.6 2.8 5.4 3.1 8.4 0.2 2.2 0.5 4.4 0.6 6.6 0.1 1.3-0.2 2.6-0.3 3.9 0 0.7-0.1 1.3 0 1.9q0.5 2 1.1 4.1c0.7 2.2 0 4.2-0.5 6.4zm-19.2-25c0.1 0 0.4 0 0.5 0 0.7-0.3 1.3-0.7 2-0.9 1.7-0.4 3.2 0 4.6 1.1 0.1 0.1 0.4 0.1 0.9 0.3-0.2-0.5-0.3-0.6-0.4-0.8-0.4-0.5-0.8-1.1-1.3-1.7-2-2-5.4-1.2-6.4 1.4 0 0.2 0 0.4 0.1 0.6zm-15 18.5c0.1 0.4 0.7 0.8 1.2 1 0.8 0.2 1.6 0.2 2.2 0.2 0.9-0.1 1.7 0 2.4-0.2 0.6-0.2 1.3-0.8 1.3-1.2 0.1-0.6-0.5-1.3-1-1.7-1.2-0.8-4.4-0.6-5.5 0.4-0.4 0.3-0.7 1-0.6 1.5zm-15.8-18.3c0.4-0.1 0.8 0 1.1-0.2 1.6-1.3 3.3-1.1 5-0.4 0.4 0.2 0.7 0.4 1.1 0.4 0.2 0.1 0.5-0.4 0.5-0.5-0.2-1-2.5-2.8-3.5-2.8-1.9-0.1-2.9 1.2-3.9 2.5-0.2 0.3-0.2 0.7-0.3 1zm6.3 11c0.5 1.5 1.5 2.4 2.7 3.1 0.6 0.4 1.1 0.2 1.2-0.6 0-0.4 0-0.8-0.1-1.2-0.6-1.9-1-3.8-1.8-5.6-1-2.6-3.1-4.1-4.8-4-1.1 0.1-2.2 0.3-3 1.2-3 3.1-3.6 7-3.6 11 0 0.6 0.3 0.7 0.8 0.4 0.6-0.3 1.3-0.7 1.9-0.9 1.1-0.3 2.1-0.4 3.2-0.6 0.3-0.1 1-0.1 1-0.4 0-0.5-0.7-0.5-1-0.6-0.5-0.1-1.1 0.1-1.6 0.1-1 0.2-1.4 0-1-0.9 0.5-1.4 1.2-2.8 2-4.2 0.6-0.9 1.4-0.9 2.1-0.1 0.8 1 1.7 2.1 2 3.3zm24.3 15.2c-0.1-0.4-0.6-0.7-0.9-0.9-0.2-0.1-0.6 0.3-0.9 0.5-0.4 0.3-0.9 0.7-1.4 0.8-3 1.2-5.5-0.1-7.4-2.3-0.9-1-1.2-0.6-1.8 0-2 2.1-4.4 3-7.3 2.7-0.9-0.2-1.8-0.4-2.4-1.3-0.2-0.2-0.6-0.5-0.7-0.4-0.3 0.1-0.6 0.4-0.7 0.7-0.1 0.5 0 1 0.7 1.3 1.3 0.7 2.6 1.2 4.2 1 0.6 0 0.9 0.2 1.1 0.9 0.2 1.2 0.5 2.3 0.9 3.4 0.8 2.2 2.7 3.7 4.5 3.7 2.1 0.1 3.5-0.5 4.4-1.9 1-1.5 1.7-3.2 1.9-5 0.1-0.8 0.4-0.9 1.1-1.1 1.4-0.3 2.7-0.7 4.1-1.2 0.3-0.1 0.7-0.7 0.6-0.9zm9.8-12.9c-0.1-2.6-0.8-5.3-2.1-7.8-1.8-3.2-5.1-4-7.7-0.8-2 2.6-2.8 5.7-3.2 9 0 0.1 0.5 0.4 0.6 0.4 1.3-0.6 2.5-1.4 3.1-2.9 0.5-1.3 1.3-2.5 2.2-3.6 0.6-0.8 1.5-0.6 2 0.2q1.1 2.1 1.9 4.3c0.3 0.8 0 1.1-1 0.8-0.8-0.2-1.9 0.1-2.8 0.2-0.2 0-0.3 0.1-0.5 0.2q0.2 0.1 0.4 0.1c0.3 0.2 0.6 0.4 1 0.4 1.8 0 3.5 0.4 5 1.4 0.2 0.2 0.9-0.2 1.1-0.5 0.2-0.3 0-0.8 0-1.4z"/><path class="b" d="m104.9 39.6c-0.5 4.4-2 9.7-2 9.7-0.5 1.9-1.1 3.9-1.6 5.8-0.1 0.2-0.3 0.3-0.5 0.4-0.2-0.8-0.9-1.7-0.7-2.4 0.5-2.9 1.4-5.6 2-8.4 0.1-0.4 0.3-0.8 0.2-1.2 0-0.1 0.2-1-0.3-1.5-1-0.8-1.9 0-2.4 0.5-0.7 0.6-1 1.7-1.4 2.6-0.1 0.4-0.2 0.8-0.3 1.2-0.3 0.7-0.7 0.6-1.2 0q0 0-0.1-0.1c-1.7-1.9-3.5-3.8-5.3-5.6-0.4-0.4-0.5-0.5-0.1-0.9 2.3-2.5 4.8-4.7 7.8-6.2q0.7-0.4 1.5-0.7c1.5-0.6 3.2-0.2 4.1 1.4q0 0 0 0.1 0.1 0.1 0.2 0.2 0 0.1 0 0.2c0.4 1 0.4 2.9 0.1 4.9z"/><path class="b" d="m46.9 39.3c-2.3 1.5-4.1 3.4-5.8 5.4-0.5 0.6-0.7 0.7-0.9 0.1q0-0.1 0-0.2c-0.2-0.7-0.5-1.4-0.7-2.1-0.4-1-1-1.4-2.1-1.3-1.1 0-1.5 0.5-1.4 1.5 0.3 1.4 0.6 2.8 0.9 4.2q0.5 2 0.9 4.1c0 0.3 0 0.7-0.1 1-0.1 0.4-0.4 0.6-0.6 1-0.2-0.3-0.6-0.6-0.7-1q-0.9-4-1.7-8-0.2-0.7-0.3-1.5 0-0.2-0.1-0.5c-0.7-5-0.1-7.1 0.1-7.7q0.1-0.2 0.1-0.2c0.8-1.4 1.9-1.8 3.6-1.6q0.4 0.1 0.9 0.2c2.4 0.6 4.4 2.1 6.2 3.6 0.6 0.6 1.3 1 1.8 1.6 0.4 0.4 0.5 0.9-0.1 1.4z"/><path fill-rule="evenodd" d="m79.7 89.7c0.1 0.2-0.3 0.8-0.6 0.9-1.4 0.5-2.7 0.9-4.1 1.2-0.7 0.2-1 0.3-1.1 1.1-0.2 1.8-0.9 3.5-1.9 5-0.9 1.4-2.3 2-4.4 1.9-1.8 0-3.7-1.5-4.5-3.7-0.4-1.1-0.7-2.2-0.9-3.4-0.2-0.7-0.5-1-1.1-0.9-1.5 0.2-2.9-0.3-4.2-1-0.7-0.3-0.8-0.8-0.7-1.3 0.1-0.3 0.4-0.6 0.7-0.7 0.1-0.1 0.5 0.2 0.7 0.4 0.6 0.9 1.5 1.1 2.5 1.3 2.8 0.3 5.2-0.6 7.2-2.7 0.6-0.6 0.9-1 1.8 0 1.9 2.2 4.4 3.5 7.5 2.3 0.5-0.1 0.9-0.5 1.3-0.8 0.3-0.2 0.7-0.6 0.9-0.5 0.3 0.2 0.8 0.5 0.9 0.9zm-8.6 6.7c0-1.1-2-2.8-3.1-2.8-0.6 0-1.4 0.4-2.1 1q-0.3 0.2-0.5 0.4-0.5 0.4-0.7 0.8-0.1 0.2-0.1 0.4c0 1.3 1.8 2.6 3.6 2.6q1.2 0 1.9-0.5 0.1-0.1 0.3-0.1 0-0.1 0.1-0.2 0.1 0 0.1-0.1 0.1-0.1 0.2-0.2 0.3-0.5 0.3-1.3z"/><path  d="m59.3 77c-0.1 0.8-0.6 1-1.2 0.6-1.2-0.7-2.2-1.6-2.7-3.1-0.3-1.2-1.2-2.3-2-3.3-0.7-0.8-1.5-0.8-2.1 0.1-0.8 1.4-1.5 2.8-2 4.2-0.4 0.9 0 1.1 1 0.9 0.5 0 1.1-0.2 1.6-0.1 0.3 0.1 1 0.1 1 0.6 0 0.3-0.7 0.3-1 0.4-1.1 0.2-2.1 0.3-3.2 0.6-0.6 0.2-1.3 0.6-1.9 0.9-0.5 0.3-0.8 0.2-0.8-0.4 0-4 0.6-7.9 3.6-11 0.8-0.9 1.9-1.2 3-1.2 1.7-0.1 3.8 1.4 4.8 4 0.8 1.8 1.2 3.7 1.8 5.6 0.1 0.3 0.1 0.8 0.1 1.2z"/><path  d="m89.5 78.2c-0.2 0.3-0.9 0.7-1.1 0.5-1.5-1-3.2-1.4-5-1.4-0.4-0.1-0.7-0.2-1-0.4q-0.2 0-0.4-0.1c0.2-0.1 0.3-0.2 0.5-0.2 0.9-0.1 2-0.4 2.8-0.2 1 0.3 1.3 0 1-0.8q-0.8-2.2-1.9-4.3c-0.5-0.8-1.4-1-2-0.2-0.9 1.1-1.7 2.3-2.2 3.6-0.6 1.5-1.8 2.3-3.1 2.9-0.1 0-0.6-0.3-0.6-0.4 0.4-3.3 1.2-6.4 3.2-9 2.6-3.2 5.9-2.4 7.7 0.8 1.3 2.5 2 5.2 2.1 7.8 0 0.6 0.2 1.1 0 1.4z"/><path  d="m72 81.6c0 0.4-0.8 1-1.3 1.2-0.7 0.2-1.5 0.1-2.4 0.2-0.6 0-1.4 0-2.2-0.2-0.5-0.2-1.1-0.6-1.2-1-0.1-0.5 0.2-1.2 0.6-1.5 1.1-1 4.3-1.2 5.5-0.4 0.5 0.4 1.1 1.1 1 1.7z"/><path  d="m56.8 62.8c0 0.1-0.3 0.6-0.5 0.5-0.4 0-0.7-0.2-1.1-0.4-1.7-0.7-3.4-0.9-5 0.4-0.3 0.2-0.7 0.1-1.1 0.2 0.1-0.3 0.1-0.7 0.3-1 1-1.3 2-2.6 3.9-2.5 1 0 3.3 1.8 3.5 2.8z"/><path  d="m87.9 63.8c-0.5-0.2-0.8-0.2-0.9-0.3-1.4-1.1-2.9-1.5-4.6-1.1-0.7 0.2-1.3 0.6-2 0.9-0.1 0-0.4 0-0.5 0-0.1-0.2-0.2-0.4-0.1-0.6 1-2.6 4.4-3.4 6.4-1.4 0.5 0.6 0.9 1.2 1.3 1.7 0.1 0.2 0.2 0.3 0.4 0.8z"/></g></svg>